<?xml version="1.0" encoding="UTF-8"?>
<svg version="1.1" xmlns="http://www.w3.org/2000/svg" width="48" height="48">
<path d="M0 0 C2.5625 0.1875 2.5625 0.1875 4.5625 2.1875 C4.5625 4.8275 4.5625 7.4675 4.5625 10.1875 C15.1225 10.1875 25.6825 10.1875 36.5625 10.1875 C36.5625 7.5475 36.5625 4.9075 36.5625 2.1875 C38.5625 0.1875 38.5625 0.1875 41.125 0 C43.5625 0.1875 43.5625 0.1875 44.5625 1.1875 C44.74108965 3.28666026 44.83048477 5.39372688 44.875 7.5 C44.93107422 9.22669922 44.93107422 9.22669922 44.98828125 10.98828125 C44.5625 14.1875 44.5625 14.1875 43.09838867 16.35424805 C39.35855924 19.05785633 36.07144185 18.76212181 31.5625 18.71875 C30.68980469 18.7225769 29.81710938 18.72640381 28.91796875 18.73034668 C27.07550908 18.7330649 25.23301076 18.72570994 23.390625 18.70898438 C20.57204066 18.68757248 17.75600515 18.70878801 14.9375 18.734375 C13.14582771 18.73173171 11.35415701 18.72660669 9.5625 18.71875 C8.72074219 18.72684692 7.87898437 18.73494385 7.01171875 18.74328613 C3.18513347 18.68202789 1.19203972 18.64260867 -1.97338867 16.35424805 C-4.02091005 13.3241076 -3.8675462 11.11961229 -3.75 7.5 C-3.72550781 6.34113281 -3.70101563 5.18226562 -3.67578125 3.98828125 C-3.35845032 0.25834233 -3.35845032 0.25834233 0 0 Z " fill="#000000" transform="translate(3.4375,29.8125)"/>
<path d="M0 0 C3 0.125 3 0.125 4 1.125 C4.07325168 3.98767567 4.09238205 6.825719 4.0625 9.6875 C4.05798828 10.49380859 4.05347656 11.30011719 4.04882812 12.13085938 C4.03700518 14.12893756 4.01906914 16.12697783 4 18.125 C5.11375 18.08375 6.2275 18.0425 7.375 18 C11 18.125 11 18.125 13 20.125 C12.83732874 24.89126805 10.50635205 27.21474542 7.25 30.5 C6.38890625 31.39460938 5.5278125 32.28921875 4.640625 33.2109375 C2 35.125 2 35.125 -0.4921875 35.2109375 C-3.7826187 33.78610904 -5.830951 31.89666734 -8.375 29.375 C-9.26960937 28.51390625 -10.16421875 27.6528125 -11.0859375 26.765625 C-13 24.125 -13 24.125 -12.8515625 21.359375 C-12 19.125 -12 19.125 -11 18.125 C-8.66702567 18.08407063 -6.33294775 18.08258277 -4 18.125 C-4.01740234 16.30162109 -4.01740234 16.30162109 -4.03515625 14.44140625 C-4.04453278 12.85677236 -4.05363313 11.27213682 -4.0625 9.6875 C-4.07087891 8.88505859 -4.07925781 8.08261719 -4.08789062 7.25585938 C-4.0965143 5.21204779 -4.0522815 3.16816098 -4 1.125 C-3 0.125 -3 0.125 0 0 Z " fill="#000000" transform="translate(24,-0.125)"/>
</svg>
